<?xml version="1.0" standalone="no"?>
<!DOCTYPE svg PUBLIC "-//W3C//DTD SVG 20010904//EN"
 "http://www.w3.org/TR/2001/REC-SVG-20010904/DTD/svg10.dtd">
<svg version="1.0" xmlns="http://www.w3.org/2000/svg"
 width="270.000000pt" height="270.000000pt" viewBox="0 0 270.000000 270.000000"
 preserveAspectRatio="xMidYMid meet">
<metadata>
Created by potrace 1.11, written by Peter Selinger 2001-2013
</metadata>
<g transform="translate(0.000000,270.000000) scale(0.100000,-0.100000)"
fill="#000000" stroke="none">
<path d="M720 1570 l0 -630 630 0 630 0 0 630 0 630 -630 0 -630 0 0 -630z
m535 5 c52 -132 95 -243 95 -247 0 -5 -22 -8 -49 -8 -48 0 -48 0 -65 45 l-18
45 -117 0 -117 0 -14 -42 c-15 -43 -15 -43 -68 -46 l-53 -3 14 33 c8 18 52
131 98 251 l84 217 58 -2 58 -3 94 -240z m485 230 c39 -20 60 -63 60 -121 0
-40 -5 -51 -35 -80 -33 -31 -34 -33 -14 -39 52 -17 77 -127 42 -186 -30 -50
-64 -59 -232 -59 l-151 0 0 250 0 250 150 0 c115 0 158 -4 180 -15z"/>
<path d="M1089 1694 c-35 -90 -69 -187 -69 -195 0 -5 38 -9 85 -9 47 0 85 2
85 4 0 6 -82 221 -86 225 -2 2 -8 -9 -15 -25z"/>
<path d="M1502 1678 l3 -63 55 -3 c105 -6 150 14 150 67 0 48 -26 61 -124 61
l-87 0 3 -62z"/>
<path d="M1508 1534 c-5 -4 -8 -36 -8 -71 l0 -63 93 0 c105 0 127 11 127 67 0
49 -29 66 -123 71 -45 2 -85 1 -89 -4z"/>
</g>
</svg>
